# Blender v2.82 (sub 7) OBJ File: ''
# www.blender.org
mtllib bevel_cube.mtl
o Cube_Cube.002
v 0.798071 -0.798071 1.000000
v 0.798071 0.798071 1.000000
v 1.000000 0.798071 0.798071
v 0.798071 1.000000 0.798071
v 1.000000 -0.798071 0.798071
v 0.798071 -1.000000 0.798071
v 1.000000 -0.798071 -0.798071
v 1.000000 0.798071 -0.798071
v 0.798071 0.798071 -1.000000
v 0.798071 1.000000 -0.798071
v 0.798071 -0.798071 -1.000000
v 0.798071 -1.000000 -0.798071
v -0.798071 -0.798071 -1.000000
v -0.798071 0.798071 -1.000000
v -1.000000 0.798071 -0.798071
v -0.798071 1.000000 -0.798071
v -0.798071 1.000000 0.798071
v -1.000000 0.798071 0.798071
v -0.798071 0.798071 1.000000
v -0.798071 -0.798071 1.000000
v -1.000000 -0.798071 -0.798071
v -1.000000 -0.798071 0.798071
v -0.798071 -1.000000 0.798071
v -0.798071 -1.000000 -0.798071
v -0.892152 -0.961030 0.798071
v -0.798071 -1.000000 0.798071
v -0.798071 -0.961030 0.892152
v -0.898181 -0.910004 0.898181
v -0.798071 -0.892152 0.961030
v -0.798071 -0.798071 1.000000
v -0.892152 -0.798071 0.961030
v -0.898181 -0.898181 0.910004
v -0.961030 -0.892152 0.798071
v -0.910004 -0.898181 0.898181
v -0.961030 -0.798071 0.892152
v -1.000000 -0.798071 0.798071
v -0.892152 0.798071 0.961030
v -0.798071 0.798071 1.000000
v -0.798071 0.892152 0.961030
v -0.898181 0.898181 0.910004
v -0.798071 0.961030 0.892152
v -0.798071 1.000000 0.798071
v -0.892152 0.961030 0.798071
v -0.898181 0.910004 0.898181
v -0.961030 0.798071 0.892152
v -0.910004 0.898181 0.898181
v -0.961030 0.892152 0.798071
v -1.000000 0.798071 0.798071
v -0.798071 -0.961030 -0.892152
v -0.798071 -1.000000 -0.798071
v -0.892152 -0.961030 -0.798071
v -0.898181 -0.910004 -0.898181
v -0.961030 -0.892152 -0.798071
v -1.000000 -0.798071 -0.798071
v -0.961030 -0.798071 -0.892152
v -0.910004 -0.898181 -0.898181
v -0.798071 -0.892152 -0.961030
v -0.898181 -0.898181 -0.910004
v -0.892152 -0.798071 -0.961030
v -0.798071 -0.798071 -1.000000
v -0.892152 0.961030 -0.798071
v -0.798071 1.000000 -0.798071
v -0.798071 0.961030 -0.892152
v -0.898181 0.910004 -0.898181
v -0.798071 0.892152 -0.961030
v -0.798071 0.798071 -1.000000
v -0.892152 0.798071 -0.961030
v -0.898181 0.898181 -0.910004
v -0.961030 0.892152 -0.798071
v -0.910004 0.898181 -0.898181
v -0.961030 0.798071 -0.892152
v -1.000000 0.798071 -0.798071
v 0.798071 -0.961030 0.892152
v 0.798071 -1.000000 0.798071
v 0.892152 -0.961030 0.798071
v 0.898181 -0.910004 0.898181
v 0.961030 -0.892152 0.798071
v 1.000000 -0.798071 0.798071
v 0.961030 -0.798071 0.892152
v 0.910004 -0.898181 0.898181
v 0.798071 -0.892152 0.961030
v 0.898181 -0.898181 0.910004
v 0.892152 -0.798071 0.961030
v 0.798071 -0.798071 1.000000
v 0.892152 0.961030 0.798071
v 0.798071 1.000000 0.798071
v 0.798071 0.961030 0.892152
v 0.898181 0.910004 0.898181
v 0.798071 0.892152 0.961030
v 0.798071 0.798071 1.000000
v 0.892152 0.798071 0.961030
v 0.898181 0.898181 0.910004
v 0.961030 0.892152 0.798071
v 0.910004 0.898181 0.898181
v 0.961030 0.798071 0.892152
v 1.000000 0.798071 0.798071
v 0.892152 -0.961030 -0.798071
v 0.798071 -1.000000 -0.798071
v 0.798071 -0.961030 -0.892152
v 0.898181 -0.910004 -0.898181
v 0.798071 -0.892152 -0.961030
v 0.798071 -0.798071 -1.000000
v 0.892152 -0.798071 -0.961030
v 0.898181 -0.898181 -0.910004
v 0.961030 -0.892152 -0.798071
v 0.910004 -0.898181 -0.898181
v 0.961030 -0.798071 -0.892152
v 1.000000 -0.798071 -0.798071
v 0.798071 0.961030 -0.892152
v 0.798071 1.000000 -0.798071
v 0.892152 0.961030 -0.798071
v 0.898181 0.910004 -0.898181
v 0.961030 0.892152 -0.798071
v 1.000000 0.798071 -0.798071
v 0.961030 0.798071 -0.892152
v 0.910004 0.898181 -0.898181
v 0.798071 0.892152 -0.961030
v 0.898181 0.898181 -0.910004
v 0.892152 0.798071 -0.961030
v 0.798071 0.798071 -1.000000
vt 0.400241 0.025241
vt 0.599759 0.025241
vt 0.599759 0.224759
vt 0.400241 0.224759
vt 0.150241 0.525241
vt 0.349759 0.525241
vt 0.349759 0.724759
vt 0.150241 0.724759
vt 0.650241 0.736519
vt 0.849759 0.736519
vt 0.849759 0.745129
vt 0.650241 0.745129
vt 0.400241 0.775241
vt 0.599759 0.775241
vt 0.599759 0.974759
vt 0.400241 0.974759
vt 0.362273 0.737273
vt 0.363750 0.737273
vt 0.362273 0.738750
vt 0.599759 0.758610
vt 0.400241 0.758610
vt 0.400241 0.741390
vt 0.599759 0.741390
vt 0.400241 0.986519
vt 0.599759 0.986519
vt 0.599759 0.995129
vt 0.400241 0.995129
vt 0.150241 0.736519
vt 0.349759 0.736519
vt 0.349759 0.745129
vt 0.150241 0.745129
vt 0.138481 0.724759
vt 0.150241 0.724759
vt 0.137727 0.737273
vt 0.150241 0.750000
vt 0.143352 0.750000
vt 0.143352 0.741563
vt 0.599759 0.981648
vt 0.606648 0.981648
vt 0.606648 0.990085
vt 0.349759 0.731648
vt 0.356648 0.731648
vt 0.356648 0.740085
vt 0.383610 0.724759
vt 0.393352 0.724759
vt 0.393352 0.731648
vt 0.376478 0.731648
vt 0.356648 0.741563
vt 0.356648 0.750000
vt 0.349759 0.750000
vt 0.650241 0.750000
vt 0.643352 0.750000
vt 0.643352 0.741563
vt 0.366390 0.525241
vt 0.356648 0.525241
vt 0.356648 0.518352
vt 0.373522 0.518352
vt 0.137727 0.738750
vt 0.393352 0.991563
vt 0.393352 0.990085
vt 0.366390 0.724759
vt 0.373522 0.731648
vt 0.393352 0.751478
vt 0.393352 0.748522
vt 0.150241 0.525241
vt 0.138481 0.525241
vt 0.400241 0.974759
vt 0.599759 0.974759
vt 0.349759 0.525241
vt 0.150241 0.513481
vt 0.349759 0.513481
vt 0.349759 0.724759
vt 0.599759 0.775241
vt 0.400241 0.775241
vt 0.393352 0.974759
vt 0.393352 0.775241
vt 0.606648 0.775241
vt 0.606648 0.974759
vt 0.633610 0.525241
vt 0.633610 0.724759
vt 0.616390 0.724759
vt 0.616390 0.525241
vt 0.150241 0.504871
vt 0.349759 0.504871
vt 0.612273 0.987273
vt 0.613750 0.987273
vt 0.612273 0.988751
vt 0.862273 0.512727
vt 0.862273 0.511250
vt 0.863750 0.512727
vt 0.599759 0.258610
vt 0.400241 0.258610
vt 0.400241 0.241390
vt 0.599759 0.241390
vt 0.849759 0.513481
vt 0.650241 0.513481
vt 0.650241 0.504871
vt 0.849759 0.504871
vt 0.383610 0.525241
vt 0.362273 0.512727
vt 0.362273 0.511250
vt 0.363750 0.512727
vt 0.599759 0.508610
vt 0.400241 0.508610
vt 0.400241 0.491390
vt 0.599759 0.491390
vt 0.136250 0.737273
vt 0.137727 0.512727
vt 0.136250 0.512727
vt 0.137727 0.511250
vt 0.637727 0.512727
vt 0.636250 0.512727
vt 0.637727 0.511250
vt 0.637727 0.737273
vt 0.637727 0.738750
vt 0.636250 0.737273
vt 0.861519 0.724759
vt 0.861519 0.525241
vt 0.870129 0.525241
vt 0.870129 0.724759
vt 0.129871 0.724759
vt 0.133437 0.731648
vt 0.125000 0.731648
vt 0.125000 0.724759
vt 0.849759 0.731648
vt 0.856648 0.731648
vt 0.856648 0.740085
vt 0.606648 0.991563
vt 0.606648 1.000000
vt 0.599759 1.000000
vt 0.129871 0.525241
vt 0.125000 0.525241
vt 0.125000 0.518352
vt 0.133437 0.518352
vt 0.143352 0.508437
vt 0.143352 0.500000
vt 0.150241 0.500000
vt 0.849759 0.525241
vt 0.849759 0.500000
vt 0.856648 0.500000
vt 0.856648 0.508437
vt 0.866563 0.518352
vt 0.875000 0.518352
vt 0.875000 0.525241
vt 0.643352 0.724759
vt 0.643352 0.731648
vt 0.626478 0.731648
vt 0.623522 0.731648
vt 0.606648 0.731648
vt 0.606648 0.724759
vt 0.349759 0.500000
vt 0.356648 0.500000
vt 0.356648 0.508437
vt 0.376478 0.518352
vt 0.393352 0.518352
vt 0.393352 0.525241
vt 0.650241 0.518352
vt 0.643352 0.518352
vt 0.643352 0.509915
vt 0.606648 0.525241
vt 0.606648 0.518352
vt 0.623522 0.518352
vt 0.643352 0.508437
vt 0.643352 0.500000
vt 0.650241 0.500000
vt 0.856648 0.741563
vt 0.866563 0.731648
vt 0.865085 0.731648
vt 0.393352 0.251478
vt 0.393352 0.248522
vt 0.606648 0.248522
vt 0.606648 0.251478
vt 0.606648 0.748522
vt 0.606648 0.751478
vt 0.393352 0.501478
vt 0.393352 0.498522
vt 0.626478 0.518352
vt 0.606648 0.498522
vt 0.606648 0.501478
vt 0.400241 0.025241
vt 0.400241 0.224759
vt 0.393352 0.224759
vt 0.393352 0.025241
vt 0.599759 0.025241
vt 0.400241 0.018352
vt 0.599759 0.018352
vt 0.849759 0.724759
vt 0.599759 0.224759
vt 0.606648 0.025241
vt 0.606648 0.224759
vt 0.599759 0.275241
vt 0.400241 0.275241
vt 0.400241 0.474759
vt 0.393352 0.474759
vt 0.393352 0.275241
vt 0.650241 0.525241
vt 0.599759 0.474759
vt 0.606648 0.275241
vt 0.606648 0.474759
vt 0.599759 0.525241
vt 0.400241 0.525241
vt 0.400241 0.724759
vt 0.650241 0.724759
vt 0.599759 0.724759
vt 0.650241 0.525241
vt 0.849759 0.525241
vt 0.849759 0.724759
vt 0.650241 0.724759
vt 0.400241 0.275241
vt 0.599759 0.275241
vt 0.599759 0.474759
vt 0.400241 0.474759
vt 0.400241 0.525241
vt 0.599759 0.525241
vt 0.599759 0.724759
vt 0.400241 0.724759
vn -1.0000 0.0000 0.0000
vn 0.0000 -1.0000 0.0000
vn 0.0000 0.7071 0.7071
vn 0.0000 0.0000 1.0000
vn 0.5774 -0.5774 0.5774
vn 0.7071 0.0000 0.7071
vn -0.7071 0.0000 0.7071
vn 0.0000 -0.7071 0.7071
vn -0.3793 -0.8439 0.3793
vn -0.3793 -0.3793 0.8439
vn -0.3793 0.3793 0.8439
vn 0.3793 -0.8439 0.3793
vn 0.8439 -0.3793 0.3793
vn 0.3793 -0.3793 0.8439
vn 0.3793 0.3793 0.8439
vn 0.3793 -0.8439 -0.3793
vn -0.3029 -0.6739 0.6739
vn -0.6739 -0.3029 0.6739
vn 0.3029 -0.6739 0.6739
vn 0.6739 -0.6739 0.3029
vn 0.6739 -0.3029 0.6739
vn -0.3827 -0.9239 0.0000
vn -0.3827 0.0000 0.9239
vn 0.0000 -0.9239 -0.3827
vn 0.3827 -0.9239 0.0000
vn 0.3827 0.0000 0.9239
vn 0.0000 -0.9239 0.3827
vn 0.0000 -0.3827 0.9239
vn 0.0000 0.3827 0.9239
vn 0.5396 0.8233 -0.1761
vn 0.5396 0.8233 0.1761
vn 0.8233 0.5396 0.1761
vn 0.8233 0.5396 -0.1761
vn 0.1533 -0.6988 -0.6988
vn -0.2338 -0.7625 -0.6033
vn -0.1763 -0.5538 -0.8137
vn 0.1787 -0.5368 -0.8246
vn -0.5319 0.5319 0.6589
vn -0.4969 0.7115 0.4969
vn -0.7115 0.4969 0.4969
vn -0.4957 0.7132 -0.4957
vn -0.4957 0.4957 -0.7132
vn -0.7207 0.4902 -0.4902
vn -0.5368 0.1787 -0.8246
vn -0.5538 -0.1763 -0.8137
vn -0.8137 -0.1763 -0.5538
vn -0.8137 0.1763 -0.5538
vn -0.1761 0.8233 -0.5396
vn 0.1761 0.8233 -0.5396
vn 0.1761 0.5396 -0.8233
vn -0.1761 0.5396 -0.8233
vn 0.7071 -0.7071 0.0000
vn 0.7008 -0.7008 -0.1330
vn 0.8233 -0.5396 -0.1761
vn 0.8315 -0.5556 0.0000
vn 0.5228 -0.6733 -0.5228
vn 0.4957 -0.4957 -0.7132
vn 0.7132 -0.4957 -0.4957
vn 0.8233 0.1761 -0.5396
vn 0.8233 -0.1761 -0.5396
vn 0.5396 -0.1761 -0.8233
vn 0.5396 0.1761 -0.8233
vn -0.6331 -0.6331 0.4454
vn -0.5774 -0.5774 0.5774
vn -0.7130 -0.5549 0.4286
vn -0.4969 -0.7115 -0.4969
vn -0.7115 -0.4969 -0.4969
vn -0.4969 -0.4969 -0.7115
vn 0.4957 0.7132 -0.4957
vn 0.7132 0.4957 -0.4957
vn 0.4957 0.4957 -0.7132
vn 0.4957 0.7132 0.4957
vn 0.5228 0.5228 0.6733
vn 0.7132 0.4957 0.4957
vn -0.5538 0.8137 0.1763
vn -0.5368 0.8246 -0.1787
vn -0.8137 0.5538 -0.1763
vn -0.8137 0.5538 0.1763
vn -0.8138 -0.5538 0.1763
vn -0.9010 -0.1934 0.3884
vn -0.9284 -0.2628 0.2628
vn -0.2342 0.8380 0.4928
vn -0.2628 0.9284 0.2628
vn -0.8380 0.2342 0.4928
vn -0.9284 0.2628 0.2628
vn -0.3793 -0.8439 -0.3793
vn -0.6033 -0.7625 -0.2338
vn -0.8138 -0.5538 -0.1763
vn -0.9284 -0.2628 -0.2628
vn -0.2628 -0.2628 -0.9284
vn -0.2588 0.9306 -0.2588
vn -0.2588 0.2588 -0.9306
vn -0.9284 0.2628 -0.2628
vn 0.2588 0.9306 0.2588
vn 0.2353 0.8501 0.4711
vn 0.8501 0.2353 0.4711
vn 0.9306 0.2588 0.2588
vn 0.2588 -0.2588 -0.9306
vn 0.9306 -0.2588 -0.2588
vn 0.2588 0.9306 -0.2588
vn 0.9306 0.2588 -0.2588
vn 0.2588 0.2588 -0.9306
vn -0.6988 -0.6988 0.1533
vn -0.6739 0.3029 0.6739
vn -0.3029 0.6739 0.6739
vn 0.3029 0.6739 0.6739
vn 0.6739 0.3029 0.6739
vn 0.9239 -0.3827 0.0000
vn 0.9239 0.0000 0.3827
vn 0.0000 1.0000 0.0000
vn 0.0000 0.0000 -1.0000
vn 1.0000 0.0000 0.0000
usemtl None
s 1
f 36/1/1 48/2/1 72/3/1 54/4/1
s off
f 50/5/2 98/6/2 74/7/2 26/8/2
f 87/9/3 41/10/3 39/11/3 89/12/3
f 84/13/4 90/14/4 38/15/4 30/16/4
f 76/17/5 80/18/5 82/19/5
f 91/20/6 83/21/6 79/22/6 95/23/6
f 31/24/7 37/25/7 45/26/7 35/27/7
f 27/28/8 73/29/8 81/30/8 29/31/8
f 25/32/9 23/33/9 27/28/9 28/34/9
f 29/31/10 20/35/10 31/36/10 32/37/10
f 37/25/11 19/38/11 39/39/11 40/40/11
f 73/29/12 6/41/12 75/42/12 76/43/12
f 77/44/13 5/45/13 79/46/13 80/47/13
f 81/30/14 82/48/14 83/49/14 1/50/14
f 89/12/15 2/51/15 91/52/15 92/53/15
f 97/54/16 12/55/16 99/56/16 100/57/16
f 27/28/17 29/31/17 32/58/17 28/34/17
f 31/24/18 35/27/18 34/59/18 32/60/18
f 81/30/19 73/29/19 76/17/19 82/19/19
f 75/61/20 77/44/20 80/47/20 76/62/20
f 79/22/21 83/21/21 82/63/21 80/64/21
f 24/65/22 23/33/22 25/32/22 51/66/22
f 20/67/23 19/68/23 37/25/23 31/24/23
f 12/69/24 24/65/24 49/70/24 99/71/24
f 6/72/25 12/69/25 97/54/25 75/61/25
f 2/73/26 1/74/26 83/21/26 91/20/26
f 23/33/27 6/72/27 73/29/27 27/28/27
f 1/74/28 20/67/28 29/75/28 81/76/28
f 19/68/29 2/73/29 89/77/29 39/78/29
s 2
f 111/79/30 85/80/31 93/81/32 113/82/33
f 99/71/34 49/70/35 57/83/36 101/84/37
f 40/85/38 44/86/39 46/87/40
f 64/88/41 68/89/42 70/90/43
f 67/91/44 59/92/45 55/93/46 71/94/47
f 63/95/48 109/96/49 117/97/50 65/98/51
f 75/61/52 97/54/53 105/99/54 77/44/55
f 100/100/56 104/101/57 106/102/58
f 115/103/59 107/104/60 103/105/61 119/106/62
f 28/34/63 32/58/64 34/107/65
f 52/108/66 56/109/67 58/110/68
f 112/111/69 116/112/70 118/113/71
f 88/114/72 92/115/73 94/116/74
f 43/117/75 61/118/76 69/119/77 47/120/78
f 33/121/79 34/122/65 35/123/80 22/124/81
f 41/10/82 17/125/83 43/126/75 44/127/39
f 45/26/84 46/128/40 47/129/78 18/130/85
f 49/70/35 24/65/86 51/66/87 52/108/66
f 53/131/88 21/132/89 55/133/46 56/134/67
f 57/83/36 58/135/68 59/136/45 13/137/90
f 61/118/76 16/138/91 63/95/48 64/88/41
f 65/98/51 14/139/92 67/140/44 68/141/42
f 69/119/77 70/142/43 71/143/47 15/144/93
f 85/80/31 4/145/94 87/146/95 88/147/72
f 93/81/32 94/148/74 95/149/96 3/150/97
f 101/84/37 11/151/98 103/152/61 104/153/57
f 105/99/54 106/154/58 107/155/60 7/156/99
f 109/96/49 10/157/100 111/158/30 112/159/69
f 113/82/33 8/160/101 115/161/59 116/162/70
f 117/97/50 118/163/71 119/164/62 9/165/102
f 33/121/79 25/32/103 28/34/63 34/107/65
f 45/26/84 37/25/104 40/85/38 46/87/40
f 39/11/105 41/10/82 44/127/39 40/166/38
f 43/117/75 47/120/78 46/167/40 44/168/39
f 57/83/36 49/70/35 52/108/66 58/110/68
f 51/66/87 53/131/88 56/109/67 52/108/66
f 55/93/46 59/92/45 58/169/68 56/170/67
f 69/119/77 61/118/76 64/88/41 70/90/43
f 63/95/48 65/98/51 68/89/42 64/88/41
f 67/91/44 71/94/47 70/171/43 68/172/42
f 93/81/32 85/80/31 88/147/72 94/148/74
f 87/9/95 89/12/106 92/115/73 88/114/72
f 91/20/107 95/23/96 94/173/74 92/174/73
f 105/99/54 97/54/53 100/57/56 106/154/58
f 99/71/34 101/84/37 104/101/57 100/100/56
f 103/105/61 107/104/60 106/175/58 104/176/57
f 117/97/50 109/96/49 112/111/69 118/113/71
f 111/79/30 113/82/33 116/162/70 112/177/69
f 115/103/59 119/106/62 118/178/71 116/179/70
f 22/180/81 21/181/89 53/182/88 33/183/79
f 18/184/85 22/180/81 35/185/80 45/186/84
f 17/187/83 16/138/91 61/118/76 43/117/75
f 15/188/93 18/184/85 47/189/78 69/190/77
f 14/191/92 13/192/90 59/92/45 67/91/44
f 21/181/89 15/188/93 71/94/47 55/93/46
f 13/192/90 11/193/98 101/194/37 57/195/36
f 16/138/91 10/196/100 109/96/49 63/95/48
f 9/197/102 14/191/92 65/198/51 117/199/50
f 8/200/101 7/201/99 107/104/60 115/103/59
f 11/193/98 9/197/102 119/106/62 103/105/61
f 7/201/99 5/202/108 77/44/55 105/99/54
f 10/196/100 4/203/94 85/80/31 111/79/30
f 3/204/97 8/200/101 113/82/33 93/81/32
f 5/202/109 3/204/97 95/23/96 79/22/109
f 4/203/94 17/187/83 41/10/82 87/9/95
f 51/66/87 25/32/103 33/121/79 53/131/88
s 6
f 110/205/110 62/206/110 42/207/110 86/208/110
s 7
f 60/209/111 66/210/111 120/211/111 102/212/111
s 10
f 108/213/112 114/214/112 96/215/112 78/216/112
