# Blender v2.82 (sub 7) OBJ File: ''
# www.blender.org
mtllib c000001.mtl
o Cube_Cube.002
v -0.399961 0.399961 0.500000
v -0.399961 -0.399961 0.500000
v 0.499961 -0.399961 0.500000
v 0.499961 0.399961 0.500000
v 0.499961 0.399961 -0.500000
v 0.499961 -0.399961 -0.500000
v -0.399961 -0.399961 -0.500000
v -0.399961 0.399961 -0.500000
v -0.500000 0.399961 -0.399961
v -0.500000 -0.399961 -0.399961
v -0.500000 -0.399961 0.399961
v -0.500000 0.399961 0.399961
v 0.499961 0.500000 -0.399961
v -0.399961 0.500000 -0.399961
v -0.399961 0.500000 0.399961
v 0.499961 0.500000 0.399961
v -0.399961 -0.500000 -0.399961
v -0.438244 -0.492385 -0.399961
v -0.439203 -0.483194 -0.439203
v -0.399961 -0.492385 -0.438244
v -0.470699 -0.470699 -0.399961
v -0.465612 -0.465612 -0.437212
v -0.437212 -0.465612 -0.465612
v -0.399961 -0.470699 -0.470699
v -0.457718 -0.457718 -0.457718
v -0.492385 -0.399961 -0.438244
v -0.483194 -0.439203 -0.439203
v -0.492385 -0.438244 -0.399961
v -0.470699 -0.399961 -0.470699
v -0.465612 -0.437212 -0.465612
v -0.399961 -0.438244 -0.492385
v -0.439203 -0.439203 -0.483194
v -0.438244 -0.399961 -0.492385
v -0.492385 0.438244 -0.399961
v -0.483194 0.439203 -0.439203
v -0.492385 0.399961 -0.438244
v -0.470699 0.470699 -0.399961
v -0.465612 0.465612 -0.437212
v -0.465612 0.437212 -0.465612
v -0.470699 0.399961 -0.470699
v -0.457718 0.457718 -0.457718
v -0.399961 0.492385 -0.438244
v -0.439203 0.483194 -0.439203
v -0.438244 0.492385 -0.399961
v -0.399961 0.470699 -0.470699
v -0.437212 0.465612 -0.465612
v -0.438244 0.399961 -0.492385
v -0.439203 0.439203 -0.483194
v -0.399961 0.438244 -0.492385
v -0.492385 -0.438244 0.399961
v -0.483194 -0.439203 0.439203
v -0.492385 -0.399961 0.438244
v -0.470699 -0.470699 0.399961
v -0.465612 -0.465612 0.437212
v -0.465612 -0.437212 0.465612
v -0.470699 -0.399961 0.470699
v -0.457718 -0.457718 0.457718
v -0.399961 -0.500000 0.399961
v -0.399961 -0.492385 0.438244
v -0.439203 -0.483194 0.439203
v -0.438244 -0.492385 0.399961
v -0.399961 -0.470699 0.470699
v -0.437212 -0.465612 0.465612
v -0.438244 -0.399961 0.492385
v -0.439203 -0.439203 0.483194
v -0.399961 -0.438244 0.492385
v -0.399961 0.438244 0.492385
v -0.439203 0.439203 0.483194
v -0.438244 0.399961 0.492385
v -0.399961 0.470699 0.470699
v -0.437212 0.465612 0.465612
v -0.465612 0.437212 0.465612
v -0.470699 0.399961 0.470699
v -0.457718 0.457718 0.457718
v -0.438244 0.492385 0.399961
v -0.439203 0.483194 0.439203
v -0.399961 0.492385 0.438244
v -0.470699 0.470699 0.399961
v -0.465612 0.465612 0.437212
v -0.492385 0.399961 0.438244
v -0.483194 0.439203 0.439203
v -0.492385 0.438244 0.399961
v 0.499961 -0.500000 -0.399961
v 0.499961 -0.492385 -0.438244
v 0.499961 -0.470699 -0.470699
v 0.499961 -0.438244 -0.492385
v 0.499961 0.438244 -0.492385
v 0.499961 0.470699 -0.470699
v 0.499961 0.492385 -0.438244
v 0.499961 -0.438244 0.492385
v 0.499961 -0.470699 0.470699
v 0.499961 -0.500000 0.399961
v 0.499961 -0.492385 0.438244
v 0.499961 0.438244 0.492385
v 0.499961 0.470699 0.470699
v 0.499961 0.492385 0.438244
vt 0.000000 0.000000
vt 0.000000 0.000000
vt 0.000000 0.000000
vt 0.000000 0.000000
vt 0.000000 0.000000
vt 0.000000 0.000000
vt 0.000000 0.000000
vt 0.000000 0.000000
vt 0.000000 0.000000
vt 0.000000 0.000000
vt 0.000000 0.000000
vt 0.000000 0.000000
vt 0.000000 0.000000
vt 0.000000 0.000000
vt 0.000000 0.000000
vt 0.000000 0.000000
vt 0.000000 0.000000
vt 0.000000 0.000000
vt 0.000000 0.000000
vt 0.000000 0.000000
vt 0.150010 0.525010
vt 0.349990 0.525010
vt 0.349990 0.724990
vt 0.150010 0.724990
vt 0.650010 0.525010
vt 0.849990 0.525010
vt 0.849990 0.724990
vt 0.650010 0.724990
vt 0.400010 0.275010
vt 0.599990 0.275010
vt 0.599990 0.474990
vt 0.400010 0.474990
vt 0.400010 0.025010
vt 0.599990 0.025010
vt 0.599990 0.224990
vt 0.400010 0.224990
vt 0.400010 0.525010
vt 0.390439 0.525010
vt 0.390199 0.515199
vt 0.400010 0.515439
vt 0.375000 0.525010
vt 0.375000 0.515697
vt 0.390697 0.500000
vt 0.400010 0.500000
vt 0.375000 0.510570
vt 0.599990 0.265439
vt 0.609801 0.265199
vt 0.609561 0.275010
vt 0.599990 0.250000
vt 0.609303 0.250000
vt 0.625000 0.265697
vt 0.625000 0.275010
vt 0.614430 0.250000
vt 0.859561 0.724990
vt 0.859801 0.734801
vt 0.849990 0.734561
vt 0.875000 0.724990
vt 0.875000 0.734303
vt 0.859303 0.750000
vt 0.849990 0.750000
vt 0.875000 0.739430
vt 0.390439 0.275010
vt 0.390199 0.265199
vt 0.400010 0.265439
vt 0.375000 0.275010
vt 0.375000 0.265697
vt 0.390697 0.250000
vt 0.400010 0.250000
vt 0.375000 0.260570
vt 0.599990 0.015439
vt 0.609801 0.015199
vt 0.609561 0.025010
vt 0.599990 0.000000
vt 0.609303 0.000000
vt 0.625000 0.015697
vt 0.625000 0.025010
vt 0.614430 0.000000
vt 0.650010 0.734561
vt 0.640199 0.734801
vt 0.640439 0.724990
vt 0.650010 0.750000
vt 0.640697 0.750000
vt 0.625000 0.734303
vt 0.625000 0.724990
vt 0.635570 0.750000
vt 0.609561 0.474990
vt 0.609801 0.484801
vt 0.599990 0.484561
vt 0.625000 0.474990
vt 0.625000 0.484303
vt 0.609303 0.500000
vt 0.599990 0.500000
vt 0.625000 0.489430
vt 0.400010 0.724990
vt 0.400010 0.734561
vt 0.390199 0.734801
vt 0.390439 0.724990
vt 0.400010 0.750000
vt 0.390697 0.750000
vt 0.375000 0.734303
vt 0.375000 0.724990
vt 0.385570 0.750000
vt 0.349990 0.515439
vt 0.359801 0.515199
vt 0.359561 0.525010
vt 0.349990 0.500000
vt 0.359303 0.500000
vt 0.375000 0.515697
vt 0.375000 0.525010
vt 0.364430 0.500000
vt 0.140439 0.525010
vt 0.140199 0.515199
vt 0.150010 0.515439
vt 0.125000 0.525010
vt 0.125000 0.515697
vt 0.140697 0.500000
vt 0.150010 0.500000
vt 0.125000 0.510570
vt 0.609561 0.224990
vt 0.609801 0.234801
vt 0.599990 0.234561
vt 0.625000 0.224990
vt 0.625000 0.234303
vt 0.609303 0.250000
vt 0.599990 0.250000
vt 0.625000 0.239430
vt 0.400010 0.484561
vt 0.390199 0.484801
vt 0.390439 0.474990
vt 0.400010 0.500000
vt 0.390697 0.500000
vt 0.375000 0.484303
vt 0.375000 0.474990
vt 0.385570 0.500000
vt 0.400010 0.234561
vt 0.400010 0.250000
vt 0.125000 0.724990
vt 0.140439 0.724990
vt 0.400010 0.015439
vt 0.400010 0.000000
vt 0.625000 0.525010
vt 0.640439 0.525010
vt 0.599990 0.724990
vt 0.599990 0.734561
vt 0.599990 0.750000
vt 0.375000 0.724990
vt 0.359561 0.724990
vt 0.599990 0.525010
vt 0.599990 0.515439
vt 0.599990 0.500000
vt 0.875000 0.525010
vt 0.859561 0.525010
vn 1.0000 0.0000 0.0000
vn -0.1004 0.1004 0.9899
vn -0.1004 -0.1004 0.9899
vn 0.0000 -0.0980 0.9952
vn -0.0000 0.0980 0.9952
vn 0.0000 0.0980 -0.9952
vn 0.0000 -0.0980 -0.9952
vn -0.1004 -0.1004 -0.9899
vn -0.1004 0.1004 -0.9899
vn -0.9899 0.1004 -0.1004
vn -0.9899 -0.1004 -0.1004
vn -0.9899 -0.1004 0.1004
vn -0.9899 0.1004 0.1004
vn 0.0000 0.9952 -0.0980
vn -0.1004 0.9899 -0.1004
vn -0.1004 0.9899 0.1004
vn 0.0000 0.9952 0.0980
vn -0.1004 -0.9899 -0.1004
vn -0.3792 -0.9201 -0.0981
vn -0.3673 -0.8545 -0.3673
vn -0.0981 -0.9201 -0.3792
vn -0.7041 -0.7041 -0.0919
vn -0.6663 -0.6663 -0.3347
vn -0.3347 -0.6663 -0.6663
vn -0.0919 -0.7041 -0.7041
vn -0.5774 -0.5774 -0.5773
vn -0.9201 -0.0981 -0.3792
vn -0.8545 -0.3673 -0.3673
vn -0.9201 -0.3792 -0.0981
vn -0.7041 -0.0919 -0.7041
vn -0.6663 -0.3347 -0.6663
vn -0.0981 -0.3792 -0.9201
vn -0.3673 -0.3673 -0.8545
vn -0.3792 -0.0981 -0.9201
vn -0.9201 0.3792 -0.0981
vn -0.8545 0.3673 -0.3673
vn -0.9201 0.0981 -0.3792
vn -0.7041 0.7041 -0.0919
vn -0.6663 0.6663 -0.3347
vn -0.6663 0.3347 -0.6663
vn -0.7041 0.0919 -0.7041
vn -0.5774 0.5774 -0.5773
vn -0.0981 0.9201 -0.3792
vn -0.3673 0.8545 -0.3673
vn -0.3792 0.9201 -0.0981
vn -0.0919 0.7041 -0.7041
vn -0.3347 0.6663 -0.6663
vn -0.3792 0.0981 -0.9201
vn -0.3673 0.3673 -0.8545
vn -0.0981 0.3792 -0.9201
vn -0.9201 -0.3792 0.0981
vn -0.8545 -0.3673 0.3673
vn -0.9201 -0.0981 0.3792
vn -0.7041 -0.7041 0.0919
vn -0.6663 -0.6663 0.3347
vn -0.6663 -0.3347 0.6663
vn -0.7041 -0.0919 0.7041
vn -0.5774 -0.5774 0.5773
vn -0.1004 -0.9899 0.1004
vn -0.0981 -0.9201 0.3792
vn -0.3673 -0.8545 0.3673
vn -0.3792 -0.9201 0.0981
vn -0.0919 -0.7041 0.7041
vn -0.3347 -0.6663 0.6663
vn -0.3792 -0.0981 0.9201
vn -0.3673 -0.3673 0.8545
vn -0.0981 -0.3792 0.9201
vn -0.0981 0.3792 0.9201
vn -0.3673 0.3673 0.8545
vn -0.3792 0.0981 0.9201
vn -0.0919 0.7041 0.7041
vn -0.3347 0.6663 0.6663
vn -0.6663 0.3347 0.6663
vn -0.7041 0.0919 0.7041
vn -0.5774 0.5774 0.5773
vn -0.3792 0.9201 0.0981
vn -0.3673 0.8545 0.3673
vn -0.0981 0.9201 0.3792
vn -0.7041 0.7041 0.0919
vn -0.6663 0.6663 0.3347
vn -0.9201 0.0981 0.3792
vn -0.8545 0.3673 0.3673
vn -0.9201 0.3792 0.0981
vn 0.0000 0.9239 0.3827
vn 0.0000 0.7071 0.7071
vn 0.0000 0.3827 0.9239
vn 0.0000 0.9239 -0.3827
vn 0.0000 0.7071 -0.7071
vn 0.0000 0.3827 -0.9239
vn -0.0000 -0.9952 0.0980
vn -0.0000 -0.9239 0.3827
vn -0.0000 -0.7071 0.7071
vn -0.0000 -0.3827 0.9239
vn -0.0000 -0.9952 -0.0980
vn -0.0000 -0.9239 -0.3827
vn -0.0000 -0.7071 -0.7071
vn -0.0000 -0.3827 -0.9239
usemtl Default_OBJ
s off
f 93/1/1 92/2/1 91/3/1
f 4/4/1 16/5/1 95/6/1
f 6/7/1 83/8/1 85/9/1
f 13/10/1 5/11/1 88/12/1
f 3/13/1 16/5/1 4/4/1
f 16/5/1 96/14/1 95/6/1
f 3/13/1 90/15/1 91/3/1
f 5/11/1 13/10/1 92/2/1
f 16/5/1 3/13/1 13/10/1
f 83/8/1 5/11/1 92/2/1
f 5/11/1 87/16/1 88/12/1
f 95/6/1 94/17/1 4/4/1
f 92/2/1 3/13/1 91/3/1
f 5/11/1 83/8/1 6/7/1
f 3/13/1 92/2/1 13/10/1
f 85/9/1 86/18/1 6/7/1
f 89/19/1 13/10/1 88/12/1
f 83/8/1 84/20/1 85/9/1
s 1
f 1/21/2 2/22/3 3/23/4 4/24/5
f 5/25/6 6/26/7 7/27/8 8/28/9
f 9/29/10 10/30/11 11/31/12 12/32/13
f 13/33/14 14/34/15 15/35/16 16/36/17
f 17/37/18 18/38/19 19/39/20 20/40/21
f 18/38/19 21/41/22 22/42/23 19/39/20
f 20/40/21 19/39/20 23/43/24 24/44/25
f 19/39/20 22/42/23 25/45/26 23/43/24
f 10/30/11 26/46/27 27/47/28 28/48/29
f 26/46/27 29/49/30 30/50/31 27/47/28
f 28/48/29 27/47/28 22/51/23 21/52/22
f 27/47/28 30/50/31 25/53/26 22/51/23
f 7/27/8 31/54/32 32/55/33 33/56/34
f 31/54/32 24/57/25 23/58/24 32/55/33
f 33/56/34 32/55/33 30/59/31 29/60/30
f 32/55/33 23/58/24 25/61/26 30/59/31
f 9/29/10 34/62/35 35/63/36 36/64/37
f 34/62/35 37/65/38 38/66/39 35/63/36
f 36/64/37 35/63/36 39/67/40 40/68/41
f 35/63/36 38/66/39 41/69/42 39/67/40
f 14/34/15 42/70/43 43/71/44 44/72/45
f 42/70/43 45/73/46 46/74/47 43/71/44
f 44/72/45 43/71/44 38/75/39 37/76/38
f 43/71/44 46/74/47 41/77/42 38/75/39
f 8/28/9 47/78/48 48/79/49 49/80/50
f 47/78/48 40/81/41 39/82/40 48/79/49
f 49/80/50 48/79/49 46/83/47 45/84/46
f 48/79/49 39/82/40 41/85/42 46/83/47
f 11/31/12 50/86/51 51/87/52 52/88/53
f 50/86/51 53/89/54 54/90/55 51/87/52
f 52/88/53 51/87/52 55/91/56 56/92/57
f 51/87/52 54/90/55 57/93/58 55/91/56
f 58/94/59 59/95/60 60/96/61 61/97/62
f 59/95/60 62/98/63 63/99/64 60/96/61
f 61/97/62 60/96/61 54/100/55 53/101/54
f 60/96/61 63/99/64 57/102/58 54/100/55
f 2/22/3 64/103/65 65/104/66 66/105/67
f 64/103/65 56/106/57 55/107/56 65/104/66
f 66/105/67 65/104/66 63/108/64 62/109/63
f 65/104/66 55/107/56 57/110/58 63/108/64
f 1/21/2 67/111/68 68/112/69 69/113/70
f 67/111/68 70/114/71 71/115/72 68/112/69
f 69/113/70 68/112/69 72/116/73 73/117/74
f 68/112/69 71/115/72 74/118/75 72/116/73
f 15/35/16 75/119/76 76/120/77 77/121/78
f 75/119/76 78/122/79 79/123/80 76/120/77
f 77/121/78 76/120/77 71/124/72 70/125/71
f 76/120/77 79/123/80 74/126/75 71/124/72
f 12/32/13 80/127/81 81/128/82 82/129/83
f 80/127/81 73/130/74 72/131/73 81/128/82
f 82/129/83 81/128/82 79/132/80 78/133/79
f 81/128/82 72/131/73 74/134/75 79/132/80
f 16/36/17 15/35/16 77/121/78 96/135/84
f 96/135/84 77/121/78 70/125/71 95/136/85
f 95/137/85 70/114/71 67/111/68 94/138/86
f 94/138/86 67/111/68 1/21/2 4/24/5
f 15/35/16 14/34/15 44/72/45 75/119/76
f 75/119/76 44/72/45 37/76/38 78/122/79
f 78/133/79 37/65/38 34/62/35 82/129/83
f 82/129/83 34/62/35 9/29/10 12/32/13
f 17/37/18 58/94/59 61/97/62 18/38/19
f 18/38/19 61/97/62 53/101/54 21/41/22
f 21/52/22 53/89/54 50/86/51 28/48/29
f 28/48/29 50/86/51 11/31/12 10/30/11
f 14/34/15 13/33/14 89/139/87 42/70/43
f 42/70/43 89/139/87 88/140/88 45/73/46
f 45/84/46 88/141/88 87/142/89 49/80/50
f 49/80/50 87/142/89 5/25/6 8/28/9
f 58/94/59 92/143/90 93/144/91 59/95/60
f 59/95/60 93/144/91 91/145/92 62/98/63
f 62/109/63 91/146/92 90/147/93 66/105/67
f 66/105/67 90/147/93 3/23/4 2/22/3
f 2/22/3 1/21/2 69/113/70 64/103/65
f 64/103/65 69/113/70 73/117/74 56/106/57
f 56/92/57 73/130/74 80/127/81 52/88/53
f 52/88/53 80/127/81 12/32/13 11/31/12
f 10/30/11 9/29/10 36/64/37 26/46/27
f 26/46/27 36/64/37 40/68/41 29/49/30
f 29/60/30 40/81/41 47/78/48 33/56/34
f 33/56/34 47/78/48 8/28/9 7/27/8
f 83/148/94 17/37/18 20/40/21 84/149/95
f 84/149/95 20/40/21 24/44/25 85/150/96
f 85/151/96 24/57/25 31/54/32 86/152/97
f 86/152/97 31/54/32 7/27/8 6/26/7
f 17/37/18 83/148/94 92/143/90 58/94/59
