# Blender v2.82 (sub 7) OBJ File: ''
# www.blender.org
mtllib c001111.mtl
o Cube_Cube.011
v 0.505169 -0.500000 -0.494698
v -0.494698 -0.500000 -0.505169
v 0.495745 -0.500000 0.405174
v 0.494698 -0.399961 0.505208
v 0.495005 -0.470699 0.475909
v 0.494698 0.499961 0.505208
v 0.495344 -0.492385 0.443455
v 0.494777 -0.438244 0.497593
v -0.504122 -0.500000 0.394704
v -0.505169 -0.399961 0.494737
v -0.505169 0.499961 0.494737
v -0.504523 -0.492385 0.432985
v -0.504863 -0.470699 0.465438
v 0.505169 0.500000 -0.494698
v -0.494698 0.500000 -0.505169
v -0.505090 -0.438244 0.487123
vt 0.000000 0.000000
vt 0.000000 0.000000
vt 0.000000 0.000000
vt 0.000000 0.000000
vt 0.000000 0.000000
vt 0.000000 0.000000
vt 0.000000 0.000000
vt 0.000000 0.000000
vt 0.000000 0.000000
vt 0.000000 0.000000
vt 0.000000 0.000000
vt 0.000000 0.000000
vt 0.000000 0.000000
vt 0.000000 0.000000
vt 0.000000 0.000000
vt 0.000000 0.000000
vt 0.150010 0.525010
vt 0.349990 0.525010
vt 0.349990 0.724990
vt 0.150010 0.724990
vt 0.400010 0.025010
vt 0.599990 0.025010
vt 0.599990 0.224990
vt 0.400010 0.224990
vt 0.599990 0.234561
vt 0.400010 0.234561
vt 0.599990 0.250000
vt 0.400010 0.250000
vt 0.125000 0.724990
vt 0.125000 0.525010
vt 0.140439 0.525010
vt 0.140439 0.724990
vn 0.9280 -0.3696 0.0461
vn 0.8262 -0.0544 0.5607
vn 0.8279 -0.3922 0.4009
vn 0.8122 0.4082 0.4168
vn 0.4436 -0.8264 0.3469
vn 0.4385 -0.3423 0.8310
vn 0.5834 -0.5774 -0.5713
vn 0.5834 0.5774 -0.5713
vn -0.8990 -0.0438 0.4357
vn -0.9013 0.3015 -0.3110
vn -0.8948 -0.4451 0.0344
vn -0.3997 -0.4082 -0.8207
vn -0.4508 -0.8263 0.3376
vn -0.8361 -0.3922 0.3835
vn -0.4125 0.8165 0.4040
vn -0.4558 -0.3423 0.8216
usemtl Default_OBJ.007
s 1
f 3/1/1 4/2/2 5/3/3
f 3/1/1 6/4/4 4/2/2
f 7/5/5 3/1/1 5/3/3
f 8/6/6 5/3/3 4/2/2
f 1/7/7 14/8/8 3/1/1
f 10/9/9 15/10/10 9/11/11
f 14/8/8 2/12/12 15/10/10
f 9/11/11 12/13/13 13/14/14
f 11/15/15 14/8/8 15/10/10
f 10/9/9 9/11/11 13/14/14
f 11/15/15 6/4/4 14/8/8
f 14/8/8 1/7/7 2/12/12
f 13/14/14 16/16/16 10/9/9
f 4/17/2 6/18/4 11/19/15 10/20/9
f 2/21/12 1/22/7 3/23/1 9/24/11
f 9/24/11 3/23/1 7/25/5 12/26/13
f 12/26/13 7/25/5 5/27/3 13/28/14
f 13/29/14 5/30/3 8/31/6 16/32/16
f 16/32/16 8/31/6 4/17/2 10/20/9
f 14/8/8 6/4/4 3/1/1
f 15/10/10 2/12/12 9/11/11
f 11/15/15 15/10/10 10/9/9
