# Blender v2.82 (sub 7) OBJ File: ''
# www.blender.org
mtllib xy.mtl
o Cube_Cube.001
v 0.499961 0.500000 -0.499961
v 0.499961 -0.500000 -0.499961
v 0.499961 0.500000 0.399961
v 0.499961 0.399961 0.500000
v 0.499961 0.492385 0.438244
v 0.499961 0.470699 0.470699
v 0.499961 0.438244 0.492385
v 0.499961 -0.399961 0.500000
v 0.499961 -0.500000 0.399961
v 0.499961 -0.438244 0.492385
v 0.499961 -0.470699 0.470699
v 0.499961 -0.492385 0.438244
v -0.500000 0.399961 -0.499961
v -0.399961 0.500000 -0.499961
v -0.492385 0.438244 -0.499961
v -0.470699 0.470699 -0.499961
v -0.438244 0.492385 -0.499961
v -0.399961 -0.500000 -0.499961
v -0.500000 -0.399961 -0.499961
v -0.438244 -0.492385 -0.499961
v -0.470699 -0.470699 -0.499961
v -0.492385 -0.438244 -0.499961
v -0.500000 0.399961 0.399961
v -0.399961 0.399961 0.500000
v -0.399961 0.500000 0.399961
v -0.492385 0.399961 0.438244
v -0.470699 0.399961 0.470699
v -0.492385 0.438244 0.399961
v -0.483194 0.439203 0.439203
v -0.465612 0.437212 0.465612
v -0.457718 0.457718 0.457718
v -0.399961 0.438244 0.492385
v -0.399961 0.470699 0.470699
v -0.438244 0.399961 0.492385
v -0.439203 0.439203 0.483194
v -0.437212 0.465612 0.465612
v -0.438244 0.492385 0.399961
v -0.470699 0.470699 0.399961
v -0.399961 0.492385 0.438244
v -0.439203 0.483194 0.439203
v -0.465612 0.465612 0.437212
v -0.399961 -0.399961 0.500000
v -0.500000 -0.399961 0.399961
v -0.399961 -0.500000 0.399961
v -0.438244 -0.399961 0.492385
v -0.470699 -0.399961 0.470699
v -0.399961 -0.438244 0.492385
v -0.439203 -0.439203 0.483194
v -0.465612 -0.437212 0.465612
v -0.457718 -0.457718 0.457718
v -0.492385 -0.438244 0.399961
v -0.470699 -0.470699 0.399961
v -0.492385 -0.399961 0.438244
v -0.483194 -0.439203 0.439203
v -0.465612 -0.465612 0.437212
v -0.399961 -0.492385 0.438244
v -0.399961 -0.470699 0.470699
v -0.438244 -0.492385 0.399961
v -0.439203 -0.483194 0.439203
v -0.437212 -0.465612 0.465612
vt 0.000000 0.000000
vt 0.000000 0.000000
vt 0.000000 0.000000
vt 0.000000 0.000000
vt 0.000000 0.000000
vt 0.000000 0.000000
vt 0.000000 0.000000
vt 0.000000 0.000000
vt 0.000000 0.000000
vt 0.000000 0.000000
vt 0.000000 0.000000
vt 0.000000 0.000000
vt 0.000000 0.000000
vt 0.000000 0.000000
vt 0.000000 0.000000
vt 0.000000 0.000000
vt 0.000000 0.000000
vt 0.000000 0.000000
vt 0.000000 0.000000
vt 0.000000 0.000000
vt 0.000000 0.000000
vt 0.000000 0.000000
vt 0.150010 0.525010
vt 0.349990 0.525010
vt 0.349990 0.724990
vt 0.150010 0.724990
vt 0.400010 0.775010
vt 0.599990 0.775010
vt 0.599990 0.974990
vt 0.400010 0.974990
vt 0.400010 0.025010
vt 0.599990 0.025010
vt 0.599990 0.224990
vt 0.400010 0.224990
vt 0.599990 0.765439
vt 0.609801 0.765199
vt 0.609561 0.775010
vt 0.599990 0.750000
vt 0.609303 0.750000
vt 0.625000 0.765697
vt 0.625000 0.775010
vt 0.614430 0.750000
vt 0.359561 0.724990
vt 0.359801 0.734801
vt 0.349990 0.734561
vt 0.375000 0.724990
vt 0.375000 0.734303
vt 0.359303 0.750000
vt 0.349990 0.750000
vt 0.375000 0.739430
vt 0.599990 0.724990
vt 0.609561 0.724990
vt 0.609801 0.734801
vt 0.599990 0.734561
vt 0.625000 0.724990
vt 0.625000 0.734303
vt 0.609303 0.750000
vt 0.599990 0.750000
vt 0.625000 0.739430
vt 0.150010 0.734561
vt 0.140199 0.734801
vt 0.140439 0.724990
vt 0.150010 0.750000
vt 0.140697 0.750000
vt 0.125000 0.734303
vt 0.125000 0.724990
vt 0.135570 0.750000
vt 0.390439 0.775010
vt 0.390199 0.765199
vt 0.400010 0.765439
vt 0.375000 0.775010
vt 0.375000 0.765697
vt 0.390697 0.750000
vt 0.400010 0.750000
vt 0.375000 0.760570
vt 0.400010 0.234561
vt 0.390199 0.234801
vt 0.390439 0.224990
vt 0.400010 0.250000
vt 0.390697 0.250000
vt 0.375000 0.234303
vt 0.375000 0.224990
vt 0.385570 0.250000
vt 0.599990 0.234561
vt 0.599990 0.250000
vt 0.125000 0.525010
vt 0.140439 0.525010
vt 0.599990 0.525010
vt 0.609561 0.525010
vt 0.625000 0.525010
vt 0.625000 0.974990
vt 0.609561 0.974990
vt 0.390439 0.025010
vt 0.375000 0.025010
vt 0.375000 0.974990
vt 0.390439 0.974990
vt 0.400010 0.724990
vt 0.400010 0.734561
vt 0.400010 0.750000
vt 0.375000 0.525010
vt 0.359561 0.525010
vt 0.400010 0.525010
vn 0.0000 0.0000 -1.0000
vn 1.0000 -0.0000 0.0000
vn 0.0000 -0.0980 0.9952
vn 0.0000 0.0980 0.9952
vn -0.1004 0.1004 0.9899
vn -0.1004 -0.1004 0.9899
vn -0.9899 -0.1004 0.1004
vn -0.9899 0.1004 0.1004
vn -0.9952 0.0980 0.0000
vn -0.9952 -0.0980 -0.0000
vn -0.0980 -0.9952 -0.0000
vn 0.0000 -1.0000 -0.0000
vn 0.0000 -0.9952 0.0980
vn -0.1004 -0.9899 0.1004
vn -0.9201 0.0981 0.3792
vn -0.8545 0.3673 0.3673
vn -0.9201 0.3792 0.0981
vn -0.7041 0.0919 0.7041
vn -0.6663 0.3347 0.6663
vn -0.6663 0.6663 0.3347
vn -0.7041 0.7041 0.0919
vn -0.5774 0.5774 0.5773
vn -0.0981 0.3792 0.9201
vn -0.3673 0.3673 0.8545
vn -0.3792 0.0981 0.9201
vn -0.0919 0.7041 0.7041
vn -0.3347 0.6663 0.6663
vn -0.1004 0.9899 0.1004
vn -0.3792 0.9201 0.0981
vn -0.3673 0.8545 0.3673
vn -0.0981 0.9201 0.3792
vn -0.3792 -0.0981 0.9201
vn -0.3673 -0.3673 0.8545
vn -0.0981 -0.3792 0.9201
vn -0.7041 -0.0919 0.7041
vn -0.6663 -0.3347 0.6663
vn -0.3347 -0.6663 0.6663
vn -0.0919 -0.7041 0.7041
vn -0.5774 -0.5774 0.5773
vn -0.9201 -0.3792 0.0981
vn -0.8545 -0.3673 0.3673
vn -0.9201 -0.0981 0.3792
vn -0.7041 -0.7041 0.0919
vn -0.6663 -0.6663 0.3347
vn -0.0981 -0.9201 0.3792
vn -0.3673 -0.8545 0.3673
vn -0.3792 -0.9201 0.0981
vn 0.0000 -0.9239 0.3827
vn 0.0000 -0.7071 0.7071
vn 0.0000 -0.3827 0.9239
vn -0.0980 0.9952 0.0000
vn -0.3827 0.9239 0.0000
vn -0.7071 0.7071 0.0000
vn -0.9239 0.3827 0.0000
vn -0.3827 -0.9239 0.0000
vn -0.7071 -0.7071 0.0000
vn -0.9239 -0.3827 -0.0000
vn 0.0000 0.9952 0.0980
vn 0.0000 0.9239 0.3827
vn 0.0000 0.7071 0.7071
vn 0.0000 0.3827 0.9239
vn 0.0000 1.0000 0.0000
usemtl None
s off
f 2/1/1 18/2/1 14/3/1
f 14/3/1 13/4/1 16/5/1
f 13/4/1 15/6/1 16/5/1
f 17/7/1 14/3/1 16/5/1
f 22/8/1 19/9/1 21/10/1
f 19/9/1 18/2/1 21/10/1
f 18/2/1 20/11/1 21/10/1
f 1/12/1 2/1/1 14/3/1
f 13/4/1 14/3/1 19/9/1
f 14/3/1 18/2/1 19/9/1
f 3/13/2 5/14/2 6/15/2
f 9/16/2 8/17/2 11/18/2
f 3/13/2 2/1/2 1/12/2
f 3/13/2 9/16/2 2/1/2
f 9/16/2 4/19/2 8/17/2
f 4/19/2 3/13/2 6/15/2
f 7/20/2 4/19/2 6/15/2
f 12/21/2 9/16/2 11/18/2
f 4/19/2 9/16/2 3/13/2
f 10/22/2 11/18/2 8/17/2
s 1
f 8/23/3 4/24/4 24/25/5 42/26/6
f 43/27/7 23/28/8 13/29/9 19/30/10
f 18/31/11 2/32/12 9/33/13 44/34/14
f 23/28/8 26/35/15 29/36/16 28/37/17
f 26/35/15 27/38/18 30/39/19 29/36/16
f 28/37/17 29/36/16 41/40/20 38/41/21
f 29/36/16 30/39/19 31/42/22 41/40/20
f 24/25/5 32/43/23 35/44/24 34/45/25
f 32/43/23 33/46/26 36/47/27 35/44/24
f 34/45/25 35/44/24 30/48/19 27/49/18
f 35/44/24 36/47/27 31/50/22 30/48/19
f 25/51/28 37/52/29 40/53/30 39/54/31
f 37/52/29 38/55/21 41/56/20 40/53/30
f 39/54/31 40/53/30 36/57/27 33/58/26
f 40/53/30 41/56/20 31/59/22 36/57/27
f 42/26/6 45/60/32 48/61/33 47/62/34
f 45/60/32 46/63/35 49/64/36 48/61/33
f 47/62/34 48/61/33 60/65/37 57/66/38
f 48/61/33 49/64/36 50/67/39 60/65/37
f 43/27/7 51/68/40 54/69/41 53/70/42
f 51/68/40 52/71/43 55/72/44 54/69/41
f 53/70/42 54/69/41 49/73/36 46/74/35
f 54/69/41 55/72/44 50/75/39 49/73/36
f 44/34/14 56/76/45 59/77/46 58/78/47
f 56/76/45 57/79/38 60/80/37 59/77/46
f 58/78/47 59/77/46 55/81/44 52/82/43
f 59/77/46 60/80/37 50/83/39 55/81/44
f 44/34/14 9/33/13 12/84/48 56/76/45
f 56/76/45 12/84/48 11/85/49 57/79/38
f 57/66/38 11/86/49 10/87/50 47/62/34
f 47/62/34 10/87/50 8/23/3 42/26/6
f 25/51/28 14/88/51 17/89/52 37/52/29
f 37/52/29 17/89/52 16/90/53 38/55/21
f 38/41/21 16/91/53 15/92/54 28/37/17
f 28/37/17 15/92/54 13/29/9 23/28/8
f 18/31/11 44/34/14 58/78/47 20/93/55
f 20/93/55 58/78/47 52/82/43 21/94/56
f 21/95/56 52/71/43 51/68/40 22/96/57
f 22/96/57 51/68/40 43/27/7 19/30/10
f 3/97/58 25/51/28 39/54/31 5/98/59
f 5/98/59 39/54/31 33/58/26 6/99/60
f 6/100/60 33/46/26 32/43/23 7/101/61
f 7/101/61 32/43/23 24/25/5 4/24/4
f 42/26/6 24/25/5 34/45/25 45/60/32
f 45/60/32 34/45/25 27/49/18 46/63/35
f 46/74/35 27/38/18 26/35/15 53/70/42
f 53/70/42 26/35/15 23/28/8 43/27/7
f 1/102/62 14/88/51 25/51/28 3/97/58
